<svg width="253" height="256" viewBox="0 0 253 256" fill="none" xmlns="http://www.w3.org/2000/svg">
<rect x="32.7542" y="249.143" width="204.432" height="6.85714" rx="3" fill="#42BB73"/>
<rect x="131.017" y="107.429" width="85.8387" height="20.5714" rx="7.05882" fill="#42BB73" stroke="#42BB73"/>
<path d="M174.316 113.171V112.341H176.196V119.571H175.276V113.171H174.316ZM177.649 118.841C178.496 118.161 179.159 117.605 179.639 117.171C180.119 116.731 180.523 116.275 180.849 115.801C181.183 115.321 181.349 114.851 181.349 114.391C181.349 113.958 181.243 113.618 181.029 113.371C180.823 113.118 180.486 112.991 180.019 112.991C179.566 112.991 179.213 113.135 178.959 113.421C178.713 113.701 178.579 114.078 178.559 114.551H177.679C177.706 113.805 177.933 113.228 178.359 112.821C178.786 112.415 179.336 112.211 180.009 112.211C180.696 112.211 181.239 112.401 181.639 112.781C182.046 113.161 182.249 113.685 182.249 114.351C182.249 114.905 182.083 115.445 181.749 115.971C181.423 116.491 181.049 116.951 180.629 117.351C180.209 117.745 179.673 118.205 179.019 118.731H182.459V119.491H177.649V118.841ZM187.237 115.101C187.417 114.788 187.684 114.528 188.037 114.321C188.397 114.108 188.814 114.001 189.287 114.001C189.774 114.001 190.214 114.118 190.607 114.351C191.007 114.585 191.32 114.915 191.547 115.341C191.774 115.761 191.887 116.251 191.887 116.811C191.887 117.365 191.774 117.858 191.547 118.291C191.32 118.725 191.007 119.061 190.607 119.301C190.214 119.541 189.774 119.661 189.287 119.661C188.82 119.661 188.407 119.558 188.047 119.351C187.694 119.138 187.424 118.875 187.237 118.561V122.171H186.327V114.091H187.237V115.101ZM190.957 116.811C190.957 116.398 190.874 116.038 190.707 115.731C190.54 115.425 190.314 115.191 190.027 115.031C189.747 114.871 189.437 114.791 189.097 114.791C188.764 114.791 188.454 114.875 188.167 115.041C187.887 115.201 187.66 115.438 187.487 115.751C187.32 116.058 187.237 116.415 187.237 116.821C187.237 117.235 187.32 117.598 187.487 117.911C187.66 118.218 187.887 118.455 188.167 118.621C188.454 118.781 188.764 118.861 189.097 118.861C189.437 118.861 189.747 118.781 190.027 118.621C190.314 118.455 190.54 118.218 190.707 117.911C190.874 117.598 190.957 117.231 190.957 116.811ZM192.745 116.821C192.745 116.255 192.858 115.761 193.085 115.341C193.312 114.915 193.625 114.585 194.025 114.351C194.432 114.118 194.895 114.001 195.415 114.001C196.088 114.001 196.642 114.165 197.075 114.491C197.515 114.818 197.805 115.271 197.945 115.851H196.965C196.872 115.518 196.688 115.255 196.415 115.061C196.148 114.868 195.815 114.771 195.415 114.771C194.895 114.771 194.475 114.951 194.155 115.311C193.835 115.665 193.675 116.168 193.675 116.821C193.675 117.481 193.835 117.991 194.155 118.351C194.475 118.711 194.895 118.891 195.415 118.891C195.815 118.891 196.148 118.798 196.415 118.611C196.682 118.425 196.865 118.158 196.965 117.811H197.945C197.798 118.371 197.505 118.821 197.065 119.161C196.625 119.495 196.075 119.661 195.415 119.661C194.895 119.661 194.432 119.545 194.025 119.311C193.625 119.078 193.312 118.748 193.085 118.321C192.858 117.895 192.745 117.395 192.745 116.821ZM201.099 119.661C200.679 119.661 200.303 119.591 199.969 119.451C199.636 119.305 199.373 119.105 199.179 118.851C198.986 118.591 198.879 118.295 198.859 117.961H199.799C199.826 118.235 199.953 118.458 200.179 118.631C200.413 118.805 200.716 118.891 201.089 118.891C201.436 118.891 201.709 118.815 201.909 118.661C202.109 118.508 202.209 118.315 202.209 118.081C202.209 117.841 202.103 117.665 201.889 117.551C201.676 117.431 201.346 117.315 200.899 117.201C200.493 117.095 200.159 116.988 199.899 116.881C199.646 116.768 199.426 116.605 199.239 116.391C199.059 116.171 198.969 115.885 198.969 115.531C198.969 115.251 199.053 114.995 199.219 114.761C199.386 114.528 199.623 114.345 199.929 114.211C200.236 114.071 200.586 114.001 200.979 114.001C201.586 114.001 202.076 114.155 202.449 114.461C202.823 114.768 203.023 115.188 203.049 115.721H202.139C202.119 115.435 202.003 115.205 201.789 115.031C201.583 114.858 201.303 114.771 200.949 114.771C200.623 114.771 200.363 114.841 200.169 114.981C199.976 115.121 199.879 115.305 199.879 115.531C199.879 115.711 199.936 115.861 200.049 115.981C200.169 116.095 200.316 116.188 200.489 116.261C200.669 116.328 200.916 116.405 201.229 116.491C201.623 116.598 201.943 116.705 202.189 116.811C202.436 116.911 202.646 117.065 202.819 117.271C202.999 117.478 203.093 117.748 203.099 118.081C203.099 118.381 203.016 118.651 202.849 118.891C202.683 119.131 202.446 119.321 202.139 119.461C201.839 119.595 201.493 119.661 201.099 119.661Z" fill="#BBE6CD"/>
<path fill-rule="evenodd" clip-rule="evenodd" d="M114.75 78.472C117.603 78.472 119.965 80.5758 120.912 83.2668C121.792 85.7675 123.026 88.0688 124.572 90.045C127.921 94.3248 132.463 96.7292 137.199 96.7292C141.936 96.7292 146.478 94.3248 149.827 90.045C151.373 88.0688 152.607 85.7675 153.487 83.2668C154.434 80.5758 156.796 78.472 159.648 78.472H159.968C161.329 78.472 162.58 78.9398 163.569 79.7233C164.874 80.7559 166.392 81.7525 167.818 82.61L190.183 96.0642C192.931 97.7169 194.259 101.496 193.151 104.504L184.995 126.646C183.887 129.655 180.761 130.754 178.014 129.101L172.373 125.708C169.471 123.962 165.774 126.052 165.774 129.439V182.21C165.774 185.416 163.175 188.015 159.968 188.015H114.434C111.228 188.015 108.628 185.416 108.628 182.21V129.595C108.628 126.169 104.855 124.085 101.956 125.909L96.6884 129.223C93.9745 130.931 90.8401 129.889 89.6875 126.897L81.2412 104.973C80.0886 101.981 81.3542 98.1712 84.0681 96.4638L106.284 82.4868C106.358 82.44 106.433 82.3953 106.508 82.3526C108.016 81.4938 109.674 80.5294 111.093 79.5293C112.037 78.8632 113.19 78.472 114.434 78.472H114.75Z" fill="white"/>
<path d="M120.912 83.2668L120.441 83.4328V83.4328L120.912 83.2668ZM124.572 90.045L124.178 90.3531L124.572 90.045ZM149.827 90.045L150.221 90.3531V90.3531L149.827 90.045ZM153.487 83.2668L153.015 83.1009L153.015 83.1009L153.487 83.2668ZM190.183 96.0642L189.925 96.4926V96.4926L190.183 96.0642ZM193.151 104.504L192.682 104.332L193.151 104.504ZM184.995 126.646L185.465 126.819L184.995 126.646ZM178.014 129.101L178.272 128.673L178.014 129.101ZM96.6884 129.223L96.9546 129.646L96.6884 129.223ZM89.6875 126.897L90.1541 126.718L89.6875 126.897ZM81.2412 104.973L80.7746 105.152L80.7746 105.152L81.2412 104.973ZM84.0681 96.4638L84.3343 96.887L84.0681 96.4638ZM106.284 82.4868L106.55 82.91L106.55 82.91L106.284 82.4868ZM111.093 79.5293L111.381 79.938L111.093 79.5293ZM101.956 125.909L102.222 126.333L101.956 125.909ZM163.569 79.7233L163.88 79.3313L163.569 79.7233ZM167.818 82.61L167.56 83.0385L167.818 82.61ZM121.384 83.1009C120.385 80.2613 117.865 77.972 114.75 77.972V78.972C117.341 78.972 119.546 80.8902 120.441 83.4328L121.384 83.1009ZM124.966 89.7368C123.456 87.8071 122.247 85.5547 121.384 83.1009L120.441 83.4328C121.337 85.9803 122.595 88.3305 124.178 90.3531L124.966 89.7368ZM137.199 96.2292C132.641 96.2292 128.236 93.9158 124.966 89.7368L124.178 90.3531C127.606 94.7339 132.285 97.2292 137.199 97.2292V96.2292ZM149.433 89.7368C146.163 93.9158 141.758 96.2292 137.199 96.2292V97.2292C142.113 97.2292 146.793 94.7339 150.221 90.3531L149.433 89.7368ZM153.015 83.1009C152.152 85.5547 150.943 87.8071 149.433 89.7368L150.221 90.3531C151.803 88.3305 153.062 85.9803 153.958 83.4328L153.015 83.1009ZM159.648 77.972C156.533 77.972 154.014 80.2613 153.015 83.1009L153.958 83.4328C154.853 80.8902 157.058 78.972 159.648 78.972V77.972ZM159.968 77.972H159.648V78.972H159.968V77.972ZM163.88 79.3313C162.805 78.4803 161.445 77.972 159.968 77.972V78.972C161.212 78.972 162.355 79.3992 163.259 80.1153L163.88 79.3313ZM167.56 83.0385L189.925 96.4926L190.441 95.6357L168.076 82.1816L167.56 83.0385ZM189.925 96.4926C192.467 98.0217 193.707 101.548 192.682 104.332L193.62 104.677C194.812 101.443 193.394 97.4122 190.441 95.6357L189.925 96.4926ZM192.682 104.332L184.526 126.473L185.465 126.819L193.62 104.677L192.682 104.332ZM184.526 126.473C184.019 127.849 183.065 128.759 181.954 129.15C180.842 129.541 179.528 129.429 178.272 128.673L177.756 129.53C179.247 130.427 180.87 130.591 182.285 130.093C183.7 129.596 184.863 128.452 185.465 126.819L184.526 126.473ZM178.272 128.673L172.63 125.279L172.115 126.136L177.756 129.53L178.272 128.673ZM166.274 182.21V129.439H165.274V182.21H166.274ZM159.968 188.515C163.451 188.515 166.274 185.692 166.274 182.21H165.274C165.274 185.14 162.899 187.515 159.968 187.515V188.515ZM114.434 188.515H159.968V187.515H114.434V188.515ZM108.128 182.21C108.128 185.692 110.952 188.515 114.434 188.515V187.515C111.504 187.515 109.128 185.14 109.128 182.21H108.128ZM108.128 129.595V182.21H109.128V129.595H108.128ZM96.9546 129.646L102.222 126.333L101.689 125.486L96.4221 128.8L96.9546 129.646ZM89.2209 127.077C89.8465 128.701 91.0246 129.825 92.4448 130.297C93.8651 130.769 95.4818 130.573 96.9546 129.646L96.4221 128.8C95.1811 129.581 93.8736 129.718 92.7601 129.348C91.6466 128.978 90.6812 128.086 90.1541 126.718L89.2209 127.077ZM80.7746 105.152L89.2209 127.077L90.1541 126.718L81.7078 104.793L80.7746 105.152ZM83.8018 96.0406C80.8857 97.8753 79.5361 101.938 80.7746 105.152L81.7078 104.793C80.6411 102.024 81.8228 98.4671 84.3343 96.887L83.8018 96.0406ZM106.017 82.0636L83.8018 96.0406L84.3343 96.887L106.55 82.91L106.017 82.0636ZM106.26 81.9181C106.179 81.9645 106.098 82.013 106.017 82.0636L106.55 82.91C106.618 82.8671 106.686 82.8262 106.755 82.7871L106.26 81.9181ZM114.434 77.972C113.084 77.972 111.831 78.397 110.805 79.1207L111.381 79.938C112.244 79.3293 113.297 78.972 114.434 78.972V77.972ZM114.75 77.972H114.434V78.972H114.75V77.972ZM106.755 82.7871C108.263 81.9286 109.94 80.9536 111.381 79.938L110.805 79.1207C109.408 80.1053 107.769 81.059 106.26 81.9181L106.755 82.7871ZM109.128 129.595C109.128 125.776 104.922 123.452 101.689 125.486L102.222 126.333C104.789 124.718 108.128 126.562 108.128 129.595H109.128ZM172.63 125.279C169.395 123.333 165.274 125.663 165.274 129.439H166.274C166.274 126.441 169.546 124.591 172.115 126.136L172.63 125.279ZM163.259 80.1153C164.586 81.166 166.125 82.1749 167.56 83.0385L168.076 82.1816C166.66 81.3301 165.161 80.3458 163.88 79.3313L163.259 80.1153Z" fill="#BBE6CD"/>
<rect x="117.98" y="90.8135" width="12.2214" height="14.1331" rx="2.3222" fill="#42BB73" stroke="#42BB73"/>
<rect x="83.5796" y="128" width="42.9193" height="10.2857" rx="5.14286" fill="white" stroke="#BBE6CD"/>
<rect x="83.5796" y="117.714" width="42.9193" height="10.2857" rx="5.14286" fill="white" stroke="#BBE6CD"/>
<path d="M121.356 107.429H88.7224C85.8821 107.429 83.5796 109.731 83.5796 112.571C83.5796 115.412 85.8821 117.714 88.7224 117.714H121.356C124.196 117.714 126.499 115.412 126.499 112.571C126.499 109.731 124.196 107.429 121.356 107.429Z" fill="white" stroke="#BBE6CD"/>
<path d="M62.1199 35.4286L62.1199 140.571" stroke="#BBE6CD" stroke-linecap="round" stroke-linejoin="round" stroke-dasharray="2 5"/>
<path d="M80.8935 19.4654C80.8935 29.9453 72.499 38.4309 62.1563 38.4309C51.8136 38.4309 43.4191 29.9453 43.4191 19.4654C43.4191 8.98554 51.8136 0.5 62.1563 0.5C72.499 0.5 80.8935 8.98554 80.8935 19.4654Z" fill="white" stroke="#BBE6CD"/>
<mask id="path-12-inside-1_8_97" fill="white">
<path fill-rule="evenodd" clip-rule="evenodd" d="M86.36 3.24824C85.2862 2.15972 83.5473 2.16173 82.476 3.25273L62.442 23.6555L53.224 14.2805C52.1519 13.1902 50.4118 13.1882 49.3373 14.276C48.2628 15.3638 48.2607 17.1294 49.3328 18.2197L60.2662 29.3394C60.36 29.4348 60.4588 29.5218 60.5619 29.6005C61.6385 30.6496 63.3483 30.6346 64.4065 29.5568L86.3646 7.19462C87.4358 6.10362 87.4338 4.33676 86.36 3.24824Z"/>
</mask>
<path fill-rule="evenodd" clip-rule="evenodd" d="M86.36 3.24824C85.2862 2.15972 83.5473 2.16173 82.476 3.25273L62.442 23.6555L53.224 14.2805C52.1519 13.1902 50.4118 13.1882 49.3373 14.276C48.2628 15.3638 48.2607 17.1294 49.3328 18.2197L60.2662 29.3394C60.36 29.4348 60.4588 29.5218 60.5619 29.6005C61.6385 30.6496 63.3483 30.6346 64.4065 29.5568L86.3646 7.19462C87.4358 6.10362 87.4338 4.33676 86.36 3.24824Z" fill="#42BB73"/>
<path d="M82.476 3.25273L81.7625 2.5521V2.5521L82.476 3.25273ZM86.36 3.24824L87.0719 2.54596V2.54596L86.36 3.24824ZM62.442 23.6555L61.7289 24.3566L62.4424 25.0823L63.1555 24.3561L62.442 23.6555ZM53.224 14.2805L52.5109 14.9816H52.5109L53.224 14.2805ZM49.3373 14.276L50.0487 14.9787L49.3373 14.276ZM49.3328 18.2197L50.0458 17.5186H50.0458L49.3328 18.2197ZM60.2662 29.3394L60.9793 28.6383L60.2662 29.3394ZM60.5619 29.6005L61.2599 28.8844L61.2167 28.8423L61.1688 28.8057L60.5619 29.6005ZM64.4065 29.5568L63.693 28.8562L64.4065 29.5568ZM86.3646 7.19462L87.0781 7.89525L87.0781 7.89525L86.3646 7.19462ZM83.1895 3.95336C83.8695 3.26087 84.9665 3.2596 85.6481 3.95052L87.0719 2.54596C85.6059 1.05983 83.2251 1.06259 81.7625 2.5521L83.1895 3.95336ZM63.1555 24.3561L83.1895 3.95336L81.7625 2.5521L61.7284 22.9549L63.1555 24.3561ZM63.155 22.9544L53.937 13.5794L52.5109 14.9816L61.7289 24.3566L63.155 22.9544ZM53.937 13.5794C52.4738 12.0912 50.0925 12.0885 48.6259 13.5732L50.0487 14.9787C50.7311 14.2879 51.8301 14.2892 52.5109 14.9816L53.937 13.5794ZM48.6259 13.5732C47.1672 15.0499 47.1645 17.4408 48.6197 18.9208L50.0458 17.5186C49.357 16.8181 49.3583 15.6777 50.0487 14.9787L48.6259 13.5732ZM48.6197 18.9208L59.5532 30.0405L60.9793 28.6383L50.0458 17.5186L48.6197 18.9208ZM59.5532 30.0405C59.6801 30.1696 59.8145 30.288 59.9551 30.3954L61.1688 28.8057C61.1032 28.7556 61.0398 28.6999 60.9793 28.6383L59.5532 30.0405ZM63.693 28.8562C63.0212 29.5404 61.9425 29.5496 61.2599 28.8844L59.864 30.3167C61.3344 31.7497 63.6753 31.7288 65.12 30.2575L63.693 28.8562ZM85.651 6.49399L63.693 28.8562L65.12 30.2575L87.0781 7.89525L85.651 6.49399ZM85.6481 3.95052C86.3384 4.65029 86.3397 5.79263 85.651 6.49399L87.0781 7.89525C88.532 6.41461 88.5292 4.02324 87.0719 2.54596L85.6481 3.95052Z" fill="#42BB73" mask="url(#path-12-inside-1_8_97)"/>
<path d="M80.8935 98.3226C80.8935 108.802 72.499 117.288 62.1563 117.288C51.8136 117.288 43.4191 108.802 43.4191 98.3226C43.4191 87.8427 51.8136 79.3571 62.1563 79.3571C72.499 79.3571 80.8935 87.8427 80.8935 98.3226Z" fill="white" stroke="#BBE6CD"/>
<ellipse cx="54.3594" cy="100.719" rx="2.40465" ry="2.43318" fill="#BBE6CD"/>
<ellipse cx="62.3748" cy="100.719" rx="2.40465" ry="2.43318" fill="#BBE6CD"/>
<ellipse cx="70.3902" cy="100.719" rx="2.40465" ry="2.43318" fill="#42BB73"/>
<path d="M46.3075 156.571H206.69V224.314C206.69 232.977 199.667 240 191.004 240H61.9938C53.3305 240 46.3075 232.977 46.3075 224.314V156.571Z" fill="white" stroke="#BBE6CD"/>
<rect x="36.1424" y="138.286" width="180.441" height="21.4802" rx="4.70588" fill="#42BB73" stroke="#42BB73"/>
<rect x="77.3303" y="174.586" width="11.549" height="17.8235" rx="5.77451" fill="#42BB73" stroke="#42BB73"/>
<rect x="106.169" y="174.586" width="11.549" height="17.8235" rx="5.77451" fill="#42BB73" stroke="#42BB73"/>
<rect x="135.008" y="174.586" width="11.549" height="17.8235" rx="5.77451" fill="#42BB73" stroke="#42BB73"/>
<rect x="163.847" y="174.586" width="11.549" height="17.8235" rx="5.77451" fill="#42BB73" stroke="#42BB73"/>
<rect x="91.4823" y="203.226" width="11.549" height="17.8235" rx="5.77451" fill="#42BB73" stroke="#42BB73"/>
<rect x="116.58" y="203.226" width="11.549" height="17.8235" rx="5.77451" fill="#42BB73" stroke="#42BB73"/>
<rect x="141.678" y="203.226" width="11.549" height="17.8235" rx="5.77451" fill="#42BB73" stroke="#42BB73"/>
<rect x="0.1162" y="-0.701484" width="13.7422" height="76.4068" rx="6" transform="matrix(0.809895 -0.586574 -0.577496 -0.816394 240.677 211.726)" fill="#42BB73" stroke="#42BB73"/>
<rect x="-0.1162" y="-0.701484" width="13.7422" height="76.4068" rx="6" transform="matrix(-0.809895 -0.586574 0.577496 -0.816394 12.1344 211.59)" fill="#42BB73" stroke="#42BB73"/>
</svg>
