<svg width="225" height="225" viewBox="0 0 225 225" fill="none" xmlns="http://www.w3.org/2000/svg">
<rect x="25.2761" y="218.379" width="199.724" height="6.6207" rx="3.31035" fill="#BBE6CD"/>
<rect x="44.0008" y="1" width="163" height="209" rx="16.5517" fill="white" stroke="#42BB73"/>
<rect x="61.0008" y="29" width="130" height="164" rx="11.0345" fill="#BBE6CD" stroke="#42BB73"/>
<rect x="144.949" y="9.5" width="11" height="22.1724" rx="5.5" transform="rotate(90 144.949 9.5)" fill="#BBE6CD" stroke="#42BB73"/>
<rect x="117.501" y="9.5" width="11" height="11" rx="5.5" transform="rotate(90 117.501 9.5)" fill="#BBE6CD" stroke="#42BB73"/>
<rect x="95.293" y="100.741" width="60.7932" height="21.069" rx="10.5345" fill="white" stroke="#42BB73"/>
<path d="M110.253 109.516C110.452 109.17 110.746 108.883 111.136 108.655C111.533 108.42 111.993 108.302 112.515 108.302C113.052 108.302 113.538 108.431 113.972 108.688C114.413 108.946 114.759 109.31 115.009 109.781C115.259 110.244 115.384 110.785 115.384 111.403C115.384 112.013 115.259 112.558 115.009 113.036C114.759 113.514 114.413 113.885 113.972 114.15C113.538 114.415 113.052 114.548 112.515 114.548C112 114.548 111.544 114.433 111.147 114.205C110.757 113.97 110.459 113.679 110.253 113.334V117.317H109.249V108.401H110.253V109.516ZM114.358 111.403C114.358 110.947 114.266 110.549 114.082 110.211C113.898 109.873 113.648 109.615 113.332 109.439C113.023 109.262 112.681 109.174 112.305 109.174C111.938 109.174 111.596 109.266 111.279 109.45C110.97 109.626 110.72 109.887 110.529 110.233C110.345 110.571 110.253 110.965 110.253 111.414C110.253 111.87 110.345 112.271 110.529 112.616C110.72 112.955 110.97 113.216 111.279 113.4C111.596 113.576 111.938 113.665 112.305 113.665C112.681 113.665 113.023 113.576 113.332 113.4C113.648 113.216 113.898 112.955 114.082 112.616C114.266 112.271 114.358 111.866 114.358 111.403ZM122.223 111.193C122.223 111.384 122.212 111.587 122.19 111.8H117.357C117.394 112.396 117.596 112.863 117.964 113.201C118.339 113.532 118.791 113.698 119.321 113.698C119.755 113.698 120.115 113.599 120.402 113.4C120.697 113.194 120.903 112.922 121.02 112.583H122.102C121.94 113.165 121.616 113.639 121.131 114.007C120.645 114.367 120.042 114.548 119.321 114.548C118.747 114.548 118.232 114.419 117.776 114.161C117.327 113.904 116.974 113.54 116.717 113.069C116.459 112.591 116.331 112.039 116.331 111.414C116.331 110.788 116.456 110.24 116.706 109.77C116.956 109.299 117.305 108.938 117.754 108.688C118.21 108.431 118.732 108.302 119.321 108.302C119.895 108.302 120.402 108.427 120.844 108.677C121.285 108.927 121.624 109.273 121.859 109.714C122.102 110.148 122.223 110.641 122.223 111.193ZM121.186 110.983C121.186 110.601 121.101 110.273 120.932 110.001C120.763 109.722 120.531 109.512 120.237 109.372C119.95 109.225 119.63 109.152 119.277 109.152C118.769 109.152 118.335 109.313 117.975 109.637C117.622 109.961 117.419 110.41 117.368 110.983H121.186ZM125.689 114.548C125.226 114.548 124.81 114.47 124.442 114.316C124.074 114.154 123.784 113.933 123.571 113.654C123.357 113.367 123.24 113.039 123.217 112.672H124.255C124.284 112.973 124.424 113.22 124.674 113.411C124.931 113.602 125.266 113.698 125.678 113.698C126.061 113.698 126.362 113.613 126.583 113.444C126.804 113.275 126.914 113.062 126.914 112.804C126.914 112.539 126.796 112.344 126.561 112.219C126.326 112.087 125.961 111.958 125.468 111.833C125.02 111.715 124.652 111.598 124.365 111.48C124.086 111.355 123.843 111.175 123.637 110.939C123.438 110.696 123.339 110.38 123.339 109.99C123.339 109.681 123.431 109.398 123.615 109.141C123.799 108.883 124.06 108.681 124.398 108.534C124.737 108.379 125.123 108.302 125.557 108.302C126.226 108.302 126.767 108.471 127.179 108.81C127.591 109.148 127.811 109.611 127.841 110.2H126.837C126.815 109.884 126.686 109.63 126.451 109.439C126.223 109.247 125.914 109.152 125.524 109.152C125.163 109.152 124.876 109.229 124.663 109.383C124.45 109.538 124.343 109.74 124.343 109.99C124.343 110.189 124.406 110.354 124.531 110.487C124.663 110.612 124.825 110.715 125.016 110.796C125.215 110.869 125.487 110.954 125.833 111.05C126.267 111.167 126.62 111.285 126.892 111.403C127.164 111.513 127.396 111.682 127.587 111.91C127.786 112.138 127.889 112.436 127.896 112.804C127.896 113.135 127.804 113.433 127.62 113.698C127.436 113.963 127.175 114.172 126.837 114.327C126.506 114.474 126.123 114.548 125.689 114.548ZM128.938 111.403C128.938 110.785 129.063 110.244 129.314 109.781C129.564 109.31 129.906 108.946 130.34 108.688C130.781 108.431 131.27 108.302 131.807 108.302C132.337 108.302 132.797 108.416 133.187 108.644C133.577 108.872 133.867 109.159 134.058 109.505V108.401H135.074V114.448H134.058V113.323C133.86 113.676 133.562 113.97 133.165 114.205C132.775 114.433 132.319 114.548 131.796 114.548C131.259 114.548 130.774 114.415 130.34 114.15C129.906 113.885 129.564 113.514 129.314 113.036C129.063 112.558 128.938 112.013 128.938 111.403ZM134.058 111.414C134.058 110.958 133.966 110.56 133.783 110.222C133.599 109.884 133.349 109.626 133.032 109.45C132.723 109.266 132.381 109.174 132.006 109.174C131.631 109.174 131.289 109.262 130.98 109.439C130.671 109.615 130.424 109.873 130.24 110.211C130.057 110.549 129.965 110.947 129.965 111.403C129.965 111.866 130.057 112.271 130.24 112.616C130.424 112.955 130.671 113.216 130.98 113.4C131.289 113.576 131.631 113.665 132.006 113.665C132.381 113.665 132.723 113.576 133.032 113.4C133.349 113.216 133.599 112.955 133.783 112.616C133.966 112.271 134.058 111.87 134.058 111.414ZM139.717 108.291C140.452 108.291 141.048 108.515 141.504 108.964C141.96 109.405 142.188 110.045 142.188 110.884V114.448H141.195V111.028C141.195 110.424 141.045 109.965 140.743 109.648C140.441 109.325 140.029 109.163 139.507 109.163C138.977 109.163 138.554 109.328 138.238 109.659C137.929 109.99 137.775 110.472 137.775 111.105V114.448H136.77V108.401H137.775V109.262C137.973 108.953 138.242 108.714 138.58 108.545C138.926 108.376 139.305 108.291 139.717 108.291Z" fill="#42BB73"/>
<path d="M86.4581 74.5579L91.8993 76.6411" stroke="#42BB73" stroke-linecap="round" stroke-linejoin="round"/>
<path d="M105.453 67.4619L103.55 71.9282" stroke="#42BB73" stroke-linecap="round" stroke-linejoin="round"/>
<path d="M96.9894 72.931L93.8219 68.7158" stroke="#42BB73" stroke-linecap="round" stroke-linejoin="round"/>
<path d="M90.0924 82.2583L83.9035 83.1466" stroke="#42BB73" stroke-linecap="round" stroke-linejoin="round"/>
<path fill-rule="evenodd" clip-rule="evenodd" d="M150.315 133.995L153.502 136.701C153.611 136.794 153.783 136.68 153.749 136.54C153.721 136.427 153.697 136.314 153.676 136.201C153.674 136.19 153.671 136.18 153.667 136.17L146.159 118.446C145.563 117.041 146.22 115.419 147.626 114.823C149.031 114.228 150.653 114.885 151.249 116.29L154.965 125.063C154.47 123.819 155.058 122.402 156.297 121.877C157.552 121.345 159.002 121.932 159.534 123.188L161.598 128.06C161.598 128.06 161.598 128.061 161.599 128.06C161.599 128.06 161.599 128.06 161.599 128.06L159.535 123.188C159.003 121.932 159.59 120.483 160.845 119.951C162.101 119.419 163.55 120.005 164.082 121.261L164.619 122.527C164.111 121.279 164.698 119.851 165.943 119.323C167.199 118.791 168.648 119.378 169.18 120.634L171.657 126.481C171.702 126.587 171.739 126.695 171.769 126.804L174.663 133.637C176.867 138.839 174.436 144.844 169.234 147.048L165.011 148.837C164.455 149.072 163.883 149.211 163.313 149.263C161.192 149.566 159.059 149.007 157.371 147.772C157.272 147.707 157.176 147.635 157.083 147.556L146.46 138.535C145.206 137.471 145.052 135.591 146.117 134.337C147.182 133.084 149.061 132.93 150.315 133.995Z" fill="white"/>
<path d="M150.315 133.995L150.638 133.614L150.315 133.995ZM146.159 118.446L146.619 118.251L146.159 118.446ZM151.249 116.29L151.709 116.095L151.249 116.29ZM154.965 125.063L154.505 125.258L155.43 124.878L154.965 125.063ZM159.535 123.188L159.995 122.993L159.535 123.188ZM164.619 122.527L164.158 122.722L165.082 122.339L164.619 122.527ZM171.769 126.804L171.286 126.934L171.295 126.967L171.308 126.999L171.769 126.804ZM174.663 133.637L174.203 133.832L174.663 133.637ZM163.313 149.263L163.268 148.765L163.255 148.766L163.242 148.768L163.313 149.263ZM157.371 147.772L157.667 147.369L157.657 147.362L157.647 147.355L157.371 147.772ZM157.083 147.556L156.76 147.937L156.76 147.937L157.083 147.556ZM146.46 138.535L146.136 138.916L146.46 138.535ZM146.117 134.337L145.736 134.014L145.736 134.014L146.117 134.337ZM153.676 136.201L153.184 136.29L153.676 136.201ZM153.667 136.17L154.128 135.975L153.667 136.17ZM161.599 128.06L161.138 128.255L161.599 128.06ZM153.502 136.701L153.825 136.32L153.502 136.701ZM153.749 136.54L153.264 136.66L153.749 136.54ZM153.825 136.32L150.638 133.614L149.991 134.376L153.178 137.082L153.825 136.32ZM153.184 136.29C153.207 136.414 153.233 136.537 153.264 136.66L154.234 136.42C154.209 136.317 154.187 136.214 154.168 136.111L153.184 136.29ZM145.698 118.641L153.207 136.365L154.128 135.975L146.619 118.251L145.698 118.641ZM147.43 114.363C145.771 115.066 144.995 116.982 145.698 118.641L146.619 118.251C146.131 117.1 146.669 115.771 147.821 115.284L147.43 114.363ZM151.709 116.095C151.006 114.435 149.09 113.66 147.43 114.363L147.821 115.284C148.972 114.796 150.301 115.334 150.788 116.485L151.709 116.095ZM155.425 124.868L151.709 116.095L150.788 116.485L154.505 125.258L155.425 124.868ZM156.102 121.417C154.612 122.048 153.905 123.752 154.5 125.247L155.43 124.878C155.035 123.886 155.504 122.756 156.492 122.337L156.102 121.417ZM159.994 122.992C159.354 121.482 157.612 120.777 156.102 121.417L156.492 122.337C157.493 121.913 158.649 122.381 159.073 123.383L159.994 122.992ZM162.058 127.865L159.994 122.992L159.073 123.383L161.138 128.255L162.058 127.865ZM159.074 123.383L161.138 128.255L162.059 127.865L159.995 122.993L159.074 123.383ZM160.65 119.49C159.14 120.13 158.435 121.873 159.074 123.383L159.995 122.993C159.571 121.991 160.039 120.835 161.04 120.411L160.65 119.49ZM164.543 121.066C163.903 119.556 162.16 118.851 160.65 119.49L161.04 120.411C162.042 119.987 163.198 120.455 163.622 121.456L164.543 121.066ZM165.079 122.332L164.543 121.066L163.622 121.456L164.158 122.722L165.079 122.332ZM165.748 118.863C164.251 119.497 163.545 121.215 164.156 122.716L165.082 122.339C164.677 121.343 165.145 120.204 166.138 119.784L165.748 118.863ZM169.641 120.439C169.001 118.929 167.258 118.223 165.748 118.863L166.138 119.784C167.14 119.359 168.296 119.827 168.72 120.829L169.641 120.439ZM172.118 126.286L169.641 120.439L168.72 120.829L171.197 126.676L172.118 126.286ZM172.251 126.673C172.216 126.543 172.172 126.413 172.118 126.286L171.197 126.676C171.233 126.761 171.263 126.847 171.286 126.934L172.251 126.673ZM175.124 133.442L172.229 126.609L171.308 126.999L174.203 133.832L175.124 133.442ZM169.429 147.508C174.886 145.196 177.435 138.899 175.124 133.442L174.203 133.832C176.299 138.78 173.987 144.491 169.039 146.587L169.429 147.508ZM165.206 149.297L169.429 147.508L169.039 146.587L164.816 148.376L165.206 149.297ZM163.358 149.761C163.979 149.705 164.602 149.553 165.206 149.297L164.816 148.376C164.309 148.591 163.787 148.718 163.268 148.765L163.358 149.761ZM163.242 148.768C161.253 149.052 159.251 148.528 157.667 147.369L157.076 148.176C158.867 149.486 161.131 150.08 163.384 149.758L163.242 148.768ZM156.76 147.937C156.868 148.029 156.98 148.113 157.096 148.189L157.647 147.355C157.565 147.301 157.484 147.24 157.407 147.175L156.76 147.937ZM146.136 138.916L156.76 147.937L157.407 147.175L146.783 138.154L146.136 138.916ZM145.736 134.014C144.493 135.478 144.672 137.673 146.136 138.916L146.783 138.154C145.74 137.268 145.612 135.704 146.498 134.661L145.736 134.014ZM150.638 133.614C149.174 132.37 146.979 132.549 145.736 134.014L146.498 134.661C147.384 133.618 148.948 133.49 149.991 134.376L150.638 133.614ZM161.138 128.255C161.245 128.51 161.539 128.629 161.794 128.521L161.404 127.6C161.658 127.492 161.951 127.611 162.058 127.865L161.138 128.255ZM154.168 136.111C154.16 136.065 154.146 136.02 154.128 135.975L153.207 136.365C153.196 136.341 153.189 136.315 153.184 136.29L154.168 136.111ZM161.794 128.521C162.048 128.413 162.167 128.119 162.059 127.865L161.138 128.255C161.031 128.001 161.149 127.708 161.404 127.6L161.794 128.521ZM153.178 137.082C153.436 137.301 153.756 137.255 153.954 137.126C154.149 136.998 154.312 136.734 154.234 136.42L153.264 136.66C153.221 136.486 153.315 136.349 153.405 136.29C153.498 136.229 153.677 136.194 153.825 136.32L153.178 137.082Z" fill="#42BB73"/>
<path d="M154.574 124.14L157.051 129.987" stroke="#42BB73" stroke-linecap="round" stroke-linejoin="round"/>
<path d="M159.122 122.213L161.599 128.06" stroke="#42BB73" stroke-linecap="round" stroke-linejoin="round"/>
<path d="M163.945 120.936L166.147 126.134" stroke="#42BB73" stroke-linecap="round" stroke-linejoin="round"/>
<rect width="60.6897" height="61.7932" rx="6.6207" transform="matrix(-1 0 0 1 87.0695 147.758)" fill="white" stroke="#42BB73"/>
<rect width="50.7587" height="8.8276" rx="4.4138" transform="matrix(-1 0 0 1 51.7587 161)" fill="#BBE6CD" stroke="#42BB73"/>
<rect width="51.8621" height="8.8276" rx="4.4138" transform="matrix(-1 0 0 1 57.2763 174.241)" fill="#BBE6CD" stroke="#42BB73"/>
<rect width="50.7587" height="8.8276" rx="4.4138" transform="matrix(-1 0 0 1 51.7587 187.483)" fill="#BBE6CD" stroke="#42BB73"/>
</svg>
