<svg width="44" height="44" viewBox="0 0 44 44" fill="none" xmlns="http://www.w3.org/2000/svg">
<path d="M21.8534 41.7083C11 41.7083 2.14502 32.8717 2.14502 22C2.14502 11.1283 11 2.29167 21.8534 2.29167C32.7067 2.29167 41.5617 11.1283 41.5617 22C41.5617 32.8717 32.725 41.7083 21.8534 41.7083ZM21.8534 5.04167C12.5034 5.04167 4.89502 12.65 4.89502 22C4.89502 31.35 12.5034 38.9583 21.8534 38.9583C31.2034 38.9583 38.8117 31.35 38.8117 22C38.8117 12.65 31.2034 5.04167 21.8534 5.04167Z" fill="white"/>
<path d="M29.1867 23.375H14.52C13.7684 23.375 13.145 22.7517 13.145 22C13.145 21.2483 13.7684 20.625 14.52 20.625H29.1867C29.9384 20.625 30.5617 21.2483 30.5617 22C30.5617 22.7517 29.9567 23.375 29.1867 23.375Z" fill="white"/>
</svg>
