<svg width="44" height="45" viewBox="0 0 44 45" fill="none" xmlns="http://www.w3.org/2000/svg">
<path d="M21.9 42.3438C11.0777 42.3438 2.28125 33.5473 2.28125 22.725C2.28125 11.9028 11.0777 3.10626 21.9 3.10626C32.7222 3.10626 41.5187 11.9028 41.5187 22.725C41.5187 33.5473 32.7222 42.3438 21.9 42.3438ZM21.9 5.84376C12.5925 5.84376 5.01875 13.4175 5.01875 22.725C5.01875 32.0325 12.5925 39.6063 21.9 39.6063C31.2075 39.6063 38.7812 32.0325 38.7812 22.725C38.7812 13.4175 31.2075 5.84376 21.9 5.84376Z" fill="white"/>
<path d="M29.2 24.0938H14.6C13.8517 24.0938 13.2312 23.4733 13.2312 22.725C13.2312 21.9768 13.8517 21.3563 14.6 21.3563H29.2C29.9482 21.3563 30.5687 21.9768 30.5687 22.725C30.5687 23.4733 29.9482 24.0938 29.2 24.0938Z" fill="white"/>
<path d="M21.9 31.3937C21.1517 31.3937 20.5312 30.7732 20.5312 30.025V15.425C20.5312 14.6767 21.1517 14.0562 21.9 14.0562C22.6482 14.0562 23.2687 14.6767 23.2687 15.425V30.025C23.2687 30.7732 22.6482 31.3937 21.9 31.3937Z" fill="white"/>
</svg>
